<mxfile host="app.diagrams.net" modified="2023-02-23T02:58:39.766Z" agent="5.0 (Windows NT 10.0; Win64; x64) AppleWebKit/537.36 (KHTML, like Gecko) Chrome/110.0.0.0 Safari/537.36" etag="-a81dQRNAV0vQUiCU39_" version="20.8.23" type="github">
  <diagram name="페이지-1" id="puwVf_ItmjXPvCtClFzo">
    <mxGraphModel dx="1687" dy="899" grid="1" gridSize="10" guides="1" tooltips="1" connect="1" arrows="1" fold="1" page="1" pageScale="1" pageWidth="1169" pageHeight="827" math="0" shadow="0">
      <root>
        <mxCell id="0" />
        <mxCell id="1" parent="0" />
        <mxCell id="0nJEs-VFBAUF-uE2_uE_-1" value="Actor" style="shape=umlActor;verticalLabelPosition=bottom;verticalAlign=top;html=1;outlineConnect=0;" vertex="1" parent="1">
          <mxGeometry x="10" y="367.5" width="30" height="60" as="geometry" />
        </mxCell>
        <mxCell id="0nJEs-VFBAUF-uE2_uE_-2" value="" style="rounded=0;whiteSpace=wrap;html=1;" vertex="1" parent="1">
          <mxGeometry x="220" y="250" width="690" height="310" as="geometry" />
        </mxCell>
        <mxCell id="0nJEs-VFBAUF-uE2_uE_-3" value="DB" style="shape=cylinder3;whiteSpace=wrap;html=1;boundedLbl=1;backgroundOutline=1;size=15;" vertex="1" parent="1">
          <mxGeometry x="1090" y="365" width="60" height="80" as="geometry" />
        </mxCell>
        <mxCell id="0nJEs-VFBAUF-uE2_uE_-4" value="" style="endArrow=classic;html=1;rounded=0;" edge="1" parent="1">
          <mxGeometry width="50" height="50" relative="1" as="geometry">
            <mxPoint x="50" y="380" as="sourcePoint" />
            <mxPoint x="210" y="380" as="targetPoint" />
          </mxGeometry>
        </mxCell>
        <mxCell id="0nJEs-VFBAUF-uE2_uE_-5" value="&lt;font style=&quot;font-size: 18px;&quot;&gt;request&lt;/font&gt;" style="edgeLabel;html=1;align=center;verticalAlign=middle;resizable=0;points=[];" vertex="1" connectable="0" parent="0nJEs-VFBAUF-uE2_uE_-4">
          <mxGeometry x="-0.4" y="-1" relative="1" as="geometry">
            <mxPoint x="32" as="offset" />
          </mxGeometry>
        </mxCell>
        <mxCell id="0nJEs-VFBAUF-uE2_uE_-6" value="" style="endArrow=classic;html=1;rounded=0;" edge="1" parent="1">
          <mxGeometry width="50" height="50" relative="1" as="geometry">
            <mxPoint x="210" y="440" as="sourcePoint" />
            <mxPoint x="50" y="440" as="targetPoint" />
            <Array as="points" />
          </mxGeometry>
        </mxCell>
        <mxCell id="0nJEs-VFBAUF-uE2_uE_-8" value="&lt;font style=&quot;font-size: 18px;&quot;&gt;response&lt;/font&gt;" style="edgeLabel;html=1;align=center;verticalAlign=middle;resizable=0;points=[];" vertex="1" connectable="0" parent="0nJEs-VFBAUF-uE2_uE_-6">
          <mxGeometry x="-0.1988" y="-2" relative="1" as="geometry">
            <mxPoint x="-8" as="offset" />
          </mxGeometry>
        </mxCell>
        <mxCell id="0nJEs-VFBAUF-uE2_uE_-11" value="" style="endArrow=classic;html=1;rounded=0;" edge="1" parent="1">
          <mxGeometry width="50" height="50" relative="1" as="geometry">
            <mxPoint x="920" y="380" as="sourcePoint" />
            <mxPoint x="1080" y="380" as="targetPoint" />
          </mxGeometry>
        </mxCell>
        <mxCell id="0nJEs-VFBAUF-uE2_uE_-12" value="&lt;font style=&quot;font-size: 18px;&quot;&gt;request&lt;/font&gt;" style="edgeLabel;html=1;align=center;verticalAlign=middle;resizable=0;points=[];" vertex="1" connectable="0" parent="0nJEs-VFBAUF-uE2_uE_-11">
          <mxGeometry x="-0.4" y="-1" relative="1" as="geometry">
            <mxPoint x="32" as="offset" />
          </mxGeometry>
        </mxCell>
        <mxCell id="0nJEs-VFBAUF-uE2_uE_-13" value="" style="endArrow=classic;html=1;rounded=0;" edge="1" parent="1">
          <mxGeometry width="50" height="50" relative="1" as="geometry">
            <mxPoint x="1080" y="430" as="sourcePoint" />
            <mxPoint x="920" y="430" as="targetPoint" />
            <Array as="points" />
          </mxGeometry>
        </mxCell>
        <mxCell id="0nJEs-VFBAUF-uE2_uE_-14" value="&lt;font style=&quot;font-size: 18px;&quot;&gt;response&lt;/font&gt;" style="edgeLabel;html=1;align=center;verticalAlign=middle;resizable=0;points=[];" vertex="1" connectable="0" parent="0nJEs-VFBAUF-uE2_uE_-13">
          <mxGeometry x="-0.1988" y="-2" relative="1" as="geometry">
            <mxPoint x="-8" as="offset" />
          </mxGeometry>
        </mxCell>
        <mxCell id="0nJEs-VFBAUF-uE2_uE_-15" value="view단&lt;br&gt;사용자의 입, 출력을 처리하는 부분&lt;br&gt;ex) jsp파일,&lt;br&gt;html,css,js" style="rounded=1;whiteSpace=wrap;html=1;fontSize=18;" vertex="1" parent="1">
          <mxGeometry x="230" y="310" width="170" height="185" as="geometry" />
        </mxCell>
        <mxCell id="0nJEs-VFBAUF-uE2_uE_-16" value="DAO(Data Access object) : Model 단의 일부분으로 데이터 베이스에 대하여 CRUD 작업을 하는 객체를 의미한다.&lt;br&gt;VO(Value Object) : Model 단의 일부분으로 데이터 베이스에서 얻어온 실제 값(value : 데이터)을 저장하고 있는 객체를 의미한다.&lt;br&gt;(데이터를 담은 그릇) - read only 성격이 강하다.&lt;br&gt;DTO(Data Transfer Object) : Model 단의 일부분으로 데이터를 가지고 있으면서 다른 단으로 전달 되는 객체를 의미한다.&lt;br&gt;- 주로 view단에서 사용자가 입력한 데이터를 Model단 까지 이동 시키는 객체로 사용" style="rounded=1;whiteSpace=wrap;html=1;fontSize=18;align=center;" vertex="1" parent="1">
          <mxGeometry x="20" y="650" width="1130" height="160" as="geometry" />
        </mxCell>
        <mxCell id="0nJEs-VFBAUF-uE2_uE_-17" value="" style="rounded=1;whiteSpace=wrap;html=1;fontSize=18;" vertex="1" parent="1">
          <mxGeometry x="410" y="305" width="320" height="235" as="geometry" />
        </mxCell>
        <mxCell id="0nJEs-VFBAUF-uE2_uE_-18" value="view 단과 Model단을 연결하는 제어 역할 을 하는 부분" style="rounded=0;whiteSpace=wrap;html=1;fontSize=18;" vertex="1" parent="1">
          <mxGeometry x="420" y="330" width="140" height="150" as="geometry" />
        </mxCell>
        <mxCell id="0nJEs-VFBAUF-uE2_uE_-19" value="비지니스 로직을 해결하는 부분" style="rounded=0;whiteSpace=wrap;html=1;fontSize=18;" vertex="1" parent="1">
          <mxGeometry x="570" y="330" width="145" height="150" as="geometry" />
        </mxCell>
        <mxCell id="0nJEs-VFBAUF-uE2_uE_-20" value="Controller 단" style="rounded=0;whiteSpace=wrap;html=1;fontSize=18;" vertex="1" parent="1">
          <mxGeometry x="430" y="250" width="120" height="60" as="geometry" />
        </mxCell>
        <mxCell id="0nJEs-VFBAUF-uE2_uE_-21" value="Service단" style="rounded=0;whiteSpace=wrap;html=1;fontSize=18;" vertex="1" parent="1">
          <mxGeometry x="582.5" y="250" width="120" height="60" as="geometry" />
        </mxCell>
        <mxCell id="0nJEs-VFBAUF-uE2_uE_-22" value="Model단&lt;br&gt;데이터베이스와의 작업이나 데이터를 저장할 객체를&lt;br&gt;가지고 있는 부분" style="rounded=1;whiteSpace=wrap;html=1;fontSize=18;" vertex="1" parent="1">
          <mxGeometry x="740" y="320" width="160" height="170" as="geometry" />
        </mxCell>
      </root>
    </mxGraphModel>
  </diagram>
</mxfile>
